<?xml version="1.0" standalone="no"?>
<!DOCTYPE svg PUBLIC "-//W3C//DTD SVG 20010904//EN"
 "http://www.w3.org/TR/2001/REC-SVG-20010904/DTD/svg10.dtd">
<svg version="1.0" xmlns="http://www.w3.org/2000/svg"
 width="512.000000pt" height="512.000000pt" viewBox="0 0 512.000000 512.000000"
 preserveAspectRatio="xMidYMid meet">

<g transform="translate(0.000000,512.000000) scale(0.100000,-0.100000)"
fill="#000000" stroke="none">
<path d="M1183 4440 c-103 -14 -183 -38 -272 -81 -111 -53 -191 -110 -277
-201 -224 -236 -317 -572 -249 -900 l13 -63 -72 -76 c-164 -175 -245 -402
-233 -649 7 -133 34 -240 92 -357 137 -277 379 -444 668 -460 l108 -6 16 -31
c58 -114 177 -244 292 -320 243 -162 557 -185 820 -61 138 66 275 183 347 299
27 44 31 46 64 41 136 -23 287 -26 318 -6 5 3 6 31 1 66 -4 33 -8 94 -8 136
l-1 76 -88 -5 c-112 -6 -171 7 -294 65 -54 25 -100 44 -101 42 -2 -2 -18 -42
-37 -89 -44 -115 -90 -188 -161 -259 -68 -67 -164 -122 -259 -146 -94 -25
-242 -16 -332 18 -177 68 -306 209 -368 402 -12 39 -26 74 -30 79 -5 4 -50 1
-103 -8 -118 -20 -177 -20 -252 -1 -193 51 -348 215 -401 425 -24 95 -15 251
19 349 47 134 129 233 257 312 38 24 70 48 70 54 0 5 -13 44 -29 85 -38 97
-61 211 -61 300 0 211 108 438 263 556 121 92 245 134 393 134 248 0 438 -115
559 -338 28 -50 52 -92 55 -92 3 0 24 24 47 53 151 188 306 277 482 277 214 0
400 -122 515 -337 l50 -92 35 16 c213 95 265 107 416 100 176 -8 307 -64 442
-191 136 -127 226 -312 248 -508 7 -65 -11 -56 155 -77 47 -6 96 -14 109 -18
l23 -6 -6 74 c-23 249 -93 441 -224 615 -141 187 -327 312 -548 370 -138 36
-319 38 -447 5 -49 -12 -90 -21 -91 -19 -19 32 -111 128 -159 167 -225 179
-512 232 -765 143 -66 -24 -170 -77 -223 -114 -13 -9 -29 0 -88 49 -110 94
-241 156 -391 188 -88 18 -232 25 -307 15z"/>
<path d="M3466 2746 c-202 -31 -331 -56 -333 -63 -2 -6 38 -54 90 -105 l94
-94 -63 -79 c-156 -198 -234 -466 -204 -701 30 -241 116 -422 279 -585 166
-166 354 -254 595 -279 55 -6 101 -8 103 -6 2 2 11 44 19 92 8 49 18 108 23
130 l8 41 -92 7 c-194 13 -333 74 -461 201 -121 120 -181 240 -205 412 -27
188 33 391 156 538 l34 39 98 -97 c88 -88 99 -96 110 -81 7 10 13 28 13 40 0
12 9 75 20 141 25 146 60 381 67 451 4 40 2 52 -8 51 -8 -1 -162 -24 -343 -53z"/>
<path d="M4055 2757 c-3 -6 -13 -67 -24 -134 l-18 -123 46 0 c366 -2 653 -251
712 -619 22 -140 -17 -315 -99 -448 -20 -34 -50 -76 -65 -94 l-28 -32 -97 95
c-96 95 -122 108 -122 63 0 -12 -6 -60 -14 -106 -8 -46 -24 -147 -36 -224 -11
-77 -28 -180 -36 -229 -8 -50 -11 -93 -7 -97 10 -9 674 90 688 103 6 5 -29 47
-89 107 l-99 99 41 47 c93 105 165 242 205 388 18 70 22 107 22 247 0 151 -3
173 -29 260 -108 365 -397 627 -761 689 -109 18 -185 22 -190 8z"/>
</g>
</svg>
