<?xml version="1.0" standalone="no"?>
<!DOCTYPE svg PUBLIC "-//W3C//DTD SVG 20010904//EN"
 "http://www.w3.org/TR/2001/REC-SVG-20010904/DTD/svg10.dtd">
<svg version="1.0" xmlns="http://www.w3.org/2000/svg"
 width="1024.000000pt" height="1024.000000pt" viewBox="0 0 1024.000000 1024.000000"
 preserveAspectRatio="xMidYMid meet">

<g transform="translate(0.000000,1024.000000) scale(0.100000,-0.100000)"
fill="#000000" stroke="none">
<path d="M2518 9919 c-316 -25 -654 -142 -918 -316 -467 -308 -774 -774 -876
-1328 -23 -125 -27 -526 -6 -645 21 -117 67 -288 106 -391 19 -51 34 -94 33
-94 -1 0 -48 -31 -104 -68 -165 -110 -337 -283 -457 -462 -63 -93 -167 -308
-205 -424 -65 -197 -75 -271 -75 -541 0 -216 2 -257 22 -347 78 -356 249 -665
503 -908 252 -241 539 -386 894 -452 119 -22 447 -23 553 -1 l73 15 68 -141
c167 -348 400 -608 716 -799 l90 -54 3 -186 2 -186 -397 -3 c-379 -3 -400 -4
-443 -24 -55 -25 -98 -67 -136 -131 -38 -64 -40 -155 -5 -223 29 -57 1784
-1818 1851 -1858 39 -24 56 -27 130 -27 63 0 94 5 120 19 19 10 436 419 927
909 642 641 900 905 920 941 24 43 28 62 28 126 0 57 -6 85 -22 115 -27 50
-75 96 -133 126 -45 24 -47 24 -442 27 l-398 3 0 277 0 277 88 80 c177 162
302 323 403 520 34 66 63 121 64 123 1 1 33 -11 71 -27 103 -44 217 -79 313
-97 47 -8 96 -17 108 -20 l22 -4 3 -448 3 -447 31 -55 c35 -63 97 -115 154
-130 26 -7 301 -10 832 -8 l793 3 47 27 c25 16 60 45 78 65 61 75 60 56 60
952 l0 816 108 3 c553 13 1100 254 1501 662 314 320 522 723 602 1169 25 140
28 636 3 776 -77 449 -290 866 -606 1186 -315 320 -696 527 -1143 622 -148 31
-153 32 -430 31 -267 0 -286 -1 -410 -27 -143 -30 -290 -73 -402 -118 -41 -16
-75 -29 -77 -29 -2 0 -25 34 -51 76 -198 317 -521 589 -860 725 -206 82 -385
119 -611 126 -240 8 -411 -16 -626 -87 -254 -84 -469 -214 -677 -406 l-61 -56
-27 33 c-292 351 -657 583 -1081 689 -185 46 -443 66 -644 49z m367 -499 c122
-14 168 -25 303 -76 123 -47 269 -122 365 -186 71 -48 239 -208 310 -295 28
-36 81 -86 117 -112 57 -42 80 -51 178 -74 l112 -26 113 26 c79 18 124 34 151
54 22 16 46 29 53 29 26 0 151 102 184 150 23 35 54 62 99 89 102 60 190 102
224 107 74 9 224 50 253 70 40 27 187 36 358 23 130 -10 178 -20 204 -42 9 -8
43 -20 76 -27 113 -24 351 -157 432 -241 50 -53 95 -98 146 -147 21 -20 61
-71 88 -112 118 -180 143 -212 208 -258 57 -41 82 -51 181 -75 l115 -28 120
30 c66 16 169 48 229 71 132 50 200 65 371 81 145 13 345 6 484 -16 174 -28
458 -148 648 -274 99 -64 301 -253 383 -356 117 -148 229 -367 267 -526 16
-63 38 -128 49 -144 34 -48 49 -175 49 -410 0 -279 -17 -383 -96 -588 -51
-133 -139 -304 -216 -421 -62 -92 -267 -302 -372 -381 -195 -147 -515 -290
-716 -320 -49 -7 -147 -16 -217 -20 l-128 -8 0 116 0 116 398 3 c395 3 397 3
442 27 58 30 106 76 133 126 16 30 22 58 22 115 0 64 -4 83 -28 126 -20 36
-278 300 -920 941 -491 490 -908 899 -927 909 -26 14 -57 19 -120 19 -74 0
-91 -3 -130 -27 -67 -40 -1822 -1801 -1851 -1858 -35 -68 -33 -159 5 -223 38
-64 81 -106 136 -131 43 -20 64 -21 443 -24 l397 -3 0 -499 c0 -407 -2 -500
-13 -500 -24 0 -121 31 -202 65 -44 19 -128 45 -187 59 l-108 26 -112 -27
c-100 -23 -121 -31 -180 -75 -81 -59 -146 -146 -214 -283 l-49 -100 -5 550
c-5 600 -4 580 -65 653 -15 18 -48 45 -74 60 l-46 27 -793 3 c-531 2 -806 -1
-832 -8 -57 -15 -119 -67 -154 -130 l-31 -55 -5 -715 -5 -715 -97 98 c-54 54
-115 123 -136 155 -48 70 -130 226 -162 307 -35 88 -108 183 -183 236 -55 40
-80 51 -180 74 -106 25 -121 26 -179 15 -96 -18 -369 -24 -469 -11 -143 19
-335 96 -491 196 -111 72 -271 240 -341 356 -166 280 -216 492 -189 802 15
163 46 266 133 440 75 149 275 378 389 445 104 62 173 119 220 184 44 60 52
81 77 183 l27 116 -31 127 c-17 70 -47 170 -66 223 -20 53 -41 134 -48 180
-15 107 -16 399 0 504 21 146 122 408 191 494 16 22 30 45 30 52 0 30 41 79
103 123 35 25 76 63 90 85 14 21 42 48 61 60 19 12 53 47 74 77 21 30 66 75
100 99 109 80 372 198 499 225 133 28 371 37 528 20z m4740 -3110 l610 -610
-145 0 c-146 0 -248 -17 -310 -50 -117 -62 -195 -164 -231 -300 l-22 -85 2
-1082 2 -1083 -519 0 -518 0 -2 1084 c-1 1057 -1 1087 -21 1171 -26 109 -83
193 -175 259 -91 65 -181 86 -368 86 l-143 0 610 610 c335 336 612 610 615
610 3 0 280 -274 615 -610z m-3165 -2686 c0 -1065 0 -1087 21 -1167 33 -132
113 -235 229 -297 57 -30 131 -43 288 -49 l162 -6 -610 -610 -610 -610 -610
610 -610 610 162 6 c195 7 257 23 344 85 90 65 149 150 174 256 19 80 20 118
20 1171 l0 1087 520 0 520 0 0 -1086z"/>
</g>
</svg>
